<svg width="500" height="400" viewBox="0 0 500 400" fill="none" xmlns="http://www.w3.org/2000/svg">
  <style>
    .primary-color { fill: #3a7bd5; }
    .secondary-color { fill: #6ec7c2; }
    .accent-color { fill: #f5bd5d; }
    @keyframes float {
      0%, 100% { transform: translateY(0); }
      50% { transform: translateY(-10px); }
    }
    #document { animation: float 6s ease-in-out infinite; }
    #person { animation: float 6s ease-in-out infinite 1s; }
    #magnifier { animation: float 6s ease-in-out infinite 2s; }
  </style>
  
  <!-- Background -->
  <ellipse cx="250" cy="350" rx="200" ry="30" fill="#f0f0f0" opacity="0.5"/>
  
  <!-- Document with pen -->
  <g id="document">
    <rect x="90" y="120" width="180" height="230" rx="10" fill="white" stroke="#333" stroke-width="2"/>
    <line x1="120" y1="170" x2="240" y2="170" stroke="#333" stroke-width="1.5"/>
    <line x1="120" y1="200" x2="240" y2="200" stroke="#333" stroke-width="1.5"/>
    <line x1="120" y1="230" x2="240" y2="230" stroke="#333" stroke-width="1.5"/>
    <line x1="120" y1="260" x2="200" y2="260" stroke="#333" stroke-width="1.5"/>
    <rect x="120" y="290" width="120" height="40" rx="5" fill="#f0f0f0" stroke="#333" stroke-width="1.5"/>
    <path d="M180 310 L210 310" stroke="#333" stroke-width="2"/>
    
    <!-- Pen -->
    <path d="M250 280 L270 260 L280 270 L260 290 Z" class="primary-color"/>
    <rect x="245" y="285" width="20" height="5" rx="2" transform="rotate(-45 245 285)" fill="#333"/>
  </g>
  
  <!-- Person -->
  <g id="person">
    <!-- Head -->
    <circle cx="370" cy="140" r="40" fill="#f8d0ac"/>
    
    <!-- Body -->
    <path d="M370 180 Q370 240 370 290 Q380 300 390 290 L400 220 Q410 210 400 200 L380 180 Q375 175 370 180Z" class="secondary-color"/>
    
    <!-- Arms -->
    <path d="M390 200 Q430 190 450 210" stroke="#333" stroke-width="6" stroke-linecap="round"/>
    <path d="M380 210 Q340 230 330 260" stroke="#333" stroke-width="6" stroke-linecap="round"/>
    
    <!-- Face -->
    <circle cx="355" cy="130" r="5" fill="#333"/> <!-- Left eye -->
    <circle cx="385" cy="130" r="5" fill="#333"/> <!-- Right eye -->
    <path d="M360 150 Q370 160 380 150" stroke="#333" stroke-width="2" fill="none"/> <!-- Smile -->
    
    <!-- Glasses -->
    <rect x="345" y="125" width="20" height="10" rx="5" fill="#ddd" stroke="#333" stroke-width="1.5"/>
    <rect x="375" y="125" width="20" height="10" rx="5" fill="#ddd" stroke="#333" stroke-width="1.5"/>
    <line x1="365" y1="130" x2="375" y2="130" stroke="#333" stroke-width="1.5"/>
  </g>
  
  <!-- Magnifier -->
  <g id="magnifier">
    <circle cx="120" cy="100" r="30" fill="#ddd" stroke="#333" stroke-width="3" opacity="0.6"/>
    <circle cx="120" cy="100" r="20" class="accent-color" opacity="0.6"/>
    <line x1="142" y1="122" x2="170" y2="150" stroke="#333" stroke-width="6" stroke-linecap="round"/>
  </g>
  
  <!-- Certificate/Badge -->
  <g>
    <path d="M300 330 L340 300 L380 330 L340 360 Z" class="primary-color" opacity="0.8"/>
    <circle cx="340" cy="330" r="15" class="accent-color"/>
    <path d="M332 330 L338 336 L348 326" stroke="white" stroke-width="3" stroke-linecap="round" stroke-linejoin="round"/>
  </g>
</svg>